<svg width="136" height="105" viewBox="0 0 136 105" fill="none" xmlns="http://www.w3.org/2000/svg">
<path d="M102.5 43.5556V35.1111C102.5 33.9913 102.052 32.9174 101.255 32.1256C100.458 31.3337 99.3772 30.8889 98.25 30.8889H94V35.1111C94 36.2309 93.5522 37.3049 92.7552 38.0967C91.9582 38.8885 90.8772 39.3333 89.75 39.3333C88.6228 39.3333 87.5418 38.8885 86.7448 38.0967C85.9478 37.3049 85.5 36.2309 85.5 35.1111V30.8889H51.5V35.1111C51.5 36.2309 51.0522 37.3049 50.2552 38.0967C49.4582 38.8885 48.3772 39.3333 47.25 39.3333C46.1228 39.3333 45.0418 38.8885 44.2448 38.0967C43.4478 37.3049 43 36.2309 43 35.1111V30.8889H38.75C37.6228 30.8889 36.5418 31.3337 35.7448 32.1256C34.9478 32.9174 34.5 33.9913 34.5 35.1111V43.5556H102.5ZM102.5 52H34.5V77.3333C34.5 78.4531 34.9478 79.5271 35.7448 80.3189C36.5418 81.1107 37.6228 81.5556 38.75 81.5556H98.25C99.3772 81.5556 100.458 81.1107 101.255 80.3189C102.052 79.5271 102.5 78.4531 102.5 77.3333V52ZM94 22.4444H98.25C101.632 22.4444 104.875 23.779 107.266 26.1544C109.657 28.5299 111 31.7517 111 35.1111V77.3333C111 80.6927 109.657 83.9146 107.266 86.29C104.875 88.6655 101.632 90 98.25 90H38.75C35.3685 90 32.1255 88.6655 29.7344 86.29C27.3433 83.9146 26 80.6927 26 77.3333V35.1111C26 31.7517 27.3433 28.5299 29.7344 26.1544C32.1255 23.779 35.3685 22.4444 38.75 22.4444H43V18.2222C43 17.1024 43.4478 16.0285 44.2448 15.2367C45.0418 14.4448 46.1228 14 47.25 14C48.3772 14 49.4582 14.4448 50.2552 15.2367C51.0522 16.0285 51.5 17.1024 51.5 18.2222V22.4444H85.5V18.2222C85.5 17.1024 85.9478 16.0285 86.7448 15.2367C87.5418 14.4448 88.6228 14 89.75 14C90.8772 14 91.9582 14.4448 92.7552 15.2367C93.5522 16.0285 94 17.1024 94 18.2222V22.4444Z" fill="#060359"/>
<rect x="30" y="26.5" width="77" height="59" rx="9" stroke="#060359" stroke-width="8"/>
<path d="M30.5 48H106.5M89.5 18V24.5V35M47.5 18V35" stroke="#060359" stroke-width="8" stroke-linecap="round" stroke-linejoin="round"/>
</svg>
