<svg width="136" height="105" viewBox="0 0 136 105" fill="none" xmlns="http://www.w3.org/2000/svg">
<path fill-rule="evenodd" clip-rule="evenodd" d="M59.2856 52.2496C59.2856 50.2969 60.8686 48.7139 62.8214 48.7139H119.393C121.346 48.7139 122.928 50.2969 122.928 52.2496C122.928 54.2023 121.346 55.7853 119.393 55.7853H62.8214C60.8686 55.7853 59.2856 54.2023 59.2856 52.2496Z" fill="#4E1B56" stroke="#4E1B56" stroke-width="1.5" stroke-linecap="round" stroke-linejoin="round"/>
<path fill-rule="evenodd" clip-rule="evenodd" d="M101.23 33.3256C102.611 31.9448 104.849 31.9448 106.23 33.3256L122.73 49.8256C124.111 51.2064 124.111 53.4451 122.73 54.8259L106.23 71.3259C104.849 72.7067 102.611 72.7067 101.23 71.3259C99.8491 69.9451 99.8491 67.7064 101.23 66.3256L115.23 52.3258L101.23 38.3259C99.8491 36.9451 99.8491 34.7064 101.23 33.3256Z" fill="#4E1B56" stroke="#4E1B56" stroke-width="1.5" stroke-linecap="round" stroke-linejoin="round"/>
<path fill-rule="evenodd" clip-rule="evenodd" d="M94.6431 14.5357C94.6431 12.583 93.0601 11 91.1074 11H34.5359C32.5832 11 31.0002 12.583 31.0002 14.5357V61.6786C31.0002 63.6313 32.5832 65.2143 34.5359 65.2143C36.4886 65.2143 38.0716 63.6313 38.0716 61.6786V18.0714H87.5716V28.6786C87.5716 30.6313 89.1546 32.2143 91.1074 32.2143C93.0601 32.2143 94.6431 30.6313 94.6431 28.6786V14.5357ZM91.1074 72.2857C89.1546 72.2857 87.5716 73.8687 87.5716 75.8214V86.4286H38.0716V80.5357C38.0716 78.583 36.4886 77 34.5359 77C32.5832 77 31.0002 78.583 31.0002 80.5357V89.9643C31.0002 91.917 32.5832 93.5 34.5359 93.5H91.1074C93.0601 93.5 94.6431 91.917 94.6431 89.9643V75.8214C94.6431 73.8687 93.0601 72.2857 91.1074 72.2857Z" fill="#060359" stroke="#060359" stroke-width="1.5" stroke-linecap="round" stroke-linejoin="round"/>
</svg>
