<svg width="125" height="125" viewBox="0 0 125 125" fill="none" xmlns="http://www.w3.org/2000/svg">
<path d="M47.09 79.5676L51.0284 75.5676M79.09 47.0676L76.1361 50.0676M77.59 63.0676C78.4539 60.2343 79.3728 53.6676 76.1361 50.0676M76.1361 50.0676L63.5823 62.8176M76.1361 50.0676C72.1823 46.0676 66.59 45.0676 62.09 49.0676C58.59 53.0676 61.5848 59.901 63.5823 62.8176M51.0284 75.5676C48.3823 72.7343 44.39 65.9676 49.59 61.5676M51.0284 75.5676C53.0489 77.7343 59.09 81.9426 64.09 77.5676C68.09 74.0676 68.0746 69.0676 63.5823 62.8176M51.0284 75.5676L63.5823 62.8176M15.0899 72.0676C13.0904 70.0982 12.0899 67.5676 14.0904 65.0676C16.747 61.7476 49.4236 30.5676 65.0903 15.0676C65.4236 14.4009 67.2903 13.0676 72.0903 13.0676C76.8903 13.0676 96.4236 13.0676 105.59 13.0676C107.924 12.7343 112.59 13.4676 112.59 19.0676C112.59 24.6676 112.59 44.7343 112.59 54.0676C112.59 56.0676 112.49 57.6676 110.09 60.0676C107.69 62.4676 75.2569 95.0676 60.0903 110.068C57.5903 112.54 55.2778 112.568 53.0903 110.068C50.2411 106.811 26.0899 82.901 15.0899 72.0676ZM87.0903 30.5676C87.0903 33.5676 89.5903 37.5676 94.5903 37.5676C99.5903 37.5676 101.59 33.0676 101.59 30.5676C101.59 28.0676 99.5903 23.5676 94.5903 23.5676C89.5903 23.5676 87.0903 27.5676 87.0903 30.5676Z" stroke="#975F0B" stroke-width="6" stroke-linecap="round" stroke-linejoin="round"/>
</svg>
