<svg width="125" height="125" viewBox="0 0 125 125" fill="none" xmlns="http://www.w3.org/2000/svg">
<path d="M24 79H17.5C16.3333 78.8333 14 77.9 14 75.5C14 73.1 14 61.5 14 56C14 54.3333 15 51 19 51C19.9019 51 22.8036 51 27 51M24 79C24 74 27.9939 68 34.5 68C41.0061 68 45 74 45 79M24 79C24 84 28.5 89.5 34.5 89.5C40.5 89.5 45 84 45 79M87.5 51C95.5 52.6667 111.7 56.8 112.5 60C113.3 63.2 112.833 70.6667 112.5 74C112.333 75.6667 110.3 79 103.5 79M87.5 51C83.1 45.4 75.6667 38 72.5 35C68.289 35 62.2789 35 56.5 35M87.5 51C79.3011 51 67.7764 51 56.5 51M103.5 79C103.5 74 99.5061 68 93 68C86.4939 68 82.5 74 82.5 79M103.5 79C103.5 84 99 89.5 93 89.5C87 89.5 82.5 84 82.5 79M27 51C30.1667 45.6667 37 35 39 35C40.185 35 48.0981 35 56.5 35M27 51C34.2057 51 45.2288 51 56.5 51M56.5 35V51M45 79H82.5" stroke="#918383" stroke-width="6" stroke-linecap="round" stroke-linejoin="round"/>
</svg>
