<svg width="125" height="125" viewBox="0 0 125 125" fill="none" xmlns="http://www.w3.org/2000/svg">
<path d="M35.5 20C38.9782 18.982 44.5897 17.4458 50 16.1827M35.5 20C28.1894 22 17.4539 40.1667 13 49L26.5 57C30.9965 52.2465 33.8253 47.3659 35.5 42.7257M35.5 20C37.4233 24.1861 39.0395 32.9187 35.5 42.7257M89 20C91.8333 20.1667 100.5 26.2 112.5 49L99 57C95.8555 53.4063 91.4517 46.8873 89 39.5107M89 20C85.7763 18.982 80.5489 17.4458 75.4543 16.1827M89 20C86.2344 26.2688 86.9036 33.2033 89 39.5107M50 16.1827C55.2188 14.9643 60.2505 14 63 14C65.7495 14 70.5401 14.9643 75.4543 16.1827M50 16.1827C51.6667 19.1218 56.6 24.9 63 24.5C69.4 24.1 73.9696 18.7884 75.4543 16.1827M35.5 42.7257V112H89V39.5107" stroke="#B872C4" stroke-width="6" stroke-linecap="round" stroke-linejoin="round"/>
</svg>
