<svg width="125" height="125" viewBox="0 0 125 125" fill="none" xmlns="http://www.w3.org/2000/svg">
<path d="M48.2864 48C54.1197 49.6667 67.3864 51.7 73.7864 46.5M48.2864 48C39.9531 50.5 22.6864 60.1 20.2864 78.5C17.2864 101.5 38.7864 106.622 41.2864 107C62.2864 110.5 86.2864 106 88.2864 105.5C90.2864 105 107.286 100.5 104.786 78.5C102.786 60.9 83.2864 49.8333 73.7864 46.5M48.2864 48C48.5668 44.496 47.5978 36.8429 42.2866 30.4531M73.7864 46.5C81.7864 40 89.7864 39 97.2864 42M73.7864 46.5C77.4531 45.1667 86.8864 44 95.2864 50M73.7864 46.5C69.7862 33.5 81.2866 21.5 79.7866 21M79.7866 21C78.2866 20.5 70.2866 22.5 67.7866 22.5C65.2866 22.5 61.2866 16 59.2866 16C57.6866 16 52.9533 21 50.7866 23.5C37.1866 22.7 37.12 25.5 38.7866 27C40.1225 28.0814 41.2822 29.2447 42.2866 30.4531M79.7866 21C79.2866 22 67.2866 34.5 65.2866 34.5C63.2866 34.5 58.7866 28.5 57.7866 28.5C56.7866 28.5 52.2866 34 50.2866 34.5C48.6866 34.9 44.2866 31.9687 42.2866 30.4531M61.2866 94.5V92M61.2866 63V65.5M69.7866 71.5C69.4533 69.5 67.2866 65.5 61.2866 65.5M61.2866 65.5V77.5M61.2866 65.5C58.2866 65.5 53.2866 67 53.2866 71.5C53.2866 75.5199 58.6199 77.3333 61.2866 77.5M61.2866 92C58.9533 91.8333 53.9866 90.2 52.7866 85M61.2866 92C64.2866 91.6667 70.2866 89.8 70.2866 85C70.2866 79 62.7866 77.5 61.2866 77.5M61.2866 92V77.5" stroke="#63A91C" stroke-width="6" stroke-linecap="round" stroke-linejoin="round"/>
</svg>
