<svg width="125" height="125" viewBox="0 0 125 125" fill="none" xmlns="http://www.w3.org/2000/svg">
<path d="M52.5 60.0934V40.0934M52.5 60.0934V111.593M52.5 60.0934H19M73.5 60.0934V111.593M73.5 60.0934H106.5M73.5 60.0934V40.0934M73.5 111.593H106.5V60.0934M73.5 111.593H52.5M106.5 60.0934H111V40.0934H79M73.5 40.0934H63M73.5 40.0934H79M52.5 40.0934H63M52.5 40.0934H47.5M52.5 111.593H19V60.0934M19 60.0934H14V40.0934H47.5M63 40.0934C72 33.5934 82 18.5934 86.5 16.0934C91 13.5934 98.5 15.0934 98.5 23.5934C98.5 32.0934 87.5 38.5934 79 40.0934M63 40.0934C52.5 33.0934 45 18.5934 38 16.0934C31.2195 13.6718 27.5 19.0934 27.5 23.5934C27.5 31.0934 36.7 40.0934 47.5 40.0934" stroke="#6D917B" stroke-width="6" stroke-linecap="round" stroke-linejoin="round"/>
</svg>
