<svg width="125" height="125" viewBox="0 0 125 125" fill="none" xmlns="http://www.w3.org/2000/svg">
<path d="M23.6174 92.4445C14.1171 100.445 11.1174 105.944 14.1173 109.945C18.1173 115.278 23.6172 107.444 32.1172 99.9445M23.6174 92.4445C33.1176 84.4445 27.1173 81.4445 33.6173 69.9445C34.6496 68.9638 36.0677 67.6035 37.7877 65.9445M23.6174 92.4445L27.8673 96.1945M88.1173 16.4445C88.1173 16.4445 97.1173 6.44446 108.117 16.4444C118.567 25.9445 111.117 34.9446 111.117 34.9446C111.117 34.9446 61.6173 84.4446 52.6173 92.4445C44.6173 97.4445 40.6172 89.4443 32.1172 99.9445M88.1173 16.4445C85.7782 18.809 83.0706 21.5203 80.133 24.4445M88.1173 16.4445L91.6172 20.4445M32.1172 99.9445L27.8673 96.1945M27.8673 96.1945L82.6172 41.9445M37.7877 65.9445L41.1172 69.9445M37.7877 65.9445C40.072 63.7413 42.8888 61.0113 46.0418 57.9445M46.0418 57.9445L51.6172 63.9445M46.0418 57.9445C48.7416 55.3185 51.6879 52.4454 54.7576 49.4445M54.7576 49.4445L57.6172 52.9445M54.7576 49.4445C57.2502 47.0076 59.8242 44.4863 62.4135 41.9445M62.4135 41.9445L67.6172 47.4445M62.4135 41.9445C64.9878 39.4173 67.5773 36.8698 70.1172 34.3646M70.1172 34.3646L73.6172 37.9445M70.1172 34.3646C73.6055 30.924 77 27.5631 80.133 24.4445M80.133 24.4445L86.1172 30.9445" stroke="#D64242" stroke-width="6" stroke-linecap="round" stroke-linejoin="round"/>
</svg>
