<svg width="125" height="125" viewBox="0 0 125 125" fill="none" xmlns="http://www.w3.org/2000/svg">
<path d="M82.745 71.7847C77.9117 70.6181 68.045 66.3847 67.245 58.7847C66.6534 53.1642 66.4118 47.5437 67.245 42.7516M82.745 71.7847C84.245 71.7847 99.745 70.2847 101.245 57.2847C102.445 46.8847 100.412 37.6181 99.245 34.2847C96.045 36.2847 92.245 42.1181 90.745 44.7847C81.745 43.2847 78.745 45.7847 77.245 45.2847C75.745 44.7847 75.245 28.7847 70.745 34.2847C68.9074 36.5308 67.8201 39.4438 67.245 42.7516M82.745 71.7847C81.9451 100.985 79.0783 111.285 77.7449 112.785C75.7449 113.185 74.5782 109.285 74.2449 107.285C72.7449 96.2848 70.745 78.2847 67.245 78.7848C64.445 79.1848 63.7449 82.6181 63.7449 84.2848C63.7449 101.785 64.7449 111.285 60.7449 112.285C57.5449 113.085 56.4115 109.618 56.2449 107.785C56.6449 87.3848 52.7449 77.2848 50.7449 74.7847C46.3449 68.7847 41.9115 71.2847 40.2449 73.2847C39.0449 101.285 36.4115 110.951 35.2449 112.285C30.7448 106.285 29.2449 98.7847 29.2449 98.2848C24.4449 69.8848 28.9116 52.7848 31.745 47.7847C16.945 27.7847 29.9117 17.1181 38.245 14.2847C58.645 9.48475 66.0783 19.2847 67.245 24.7847C47.245 10.7847 36.245 27.2847 34.245 32.2847C32.645 36.2847 37.245 39.2847 39.745 40.2847C51.345 31.8847 62.9117 38.4293 67.245 42.7516M78.7449 54.7847V53.7847M89.7449 54.7847V53.7847" stroke="#468B00" stroke-width="6" stroke-linecap="round" stroke-linejoin="round"/>
</svg>
