<svg width="125" height="125" viewBox="0 0 125 125" fill="none" xmlns="http://www.w3.org/2000/svg">
<path d="M19.5 78C17.3333 78 13 76.5 13 73C13 69 13 70.3333 13 69.5C13 65.5 15 63 21.5 63C21.8872 63 22.3904 63 23 63M19.5 78V87L27.5 111C28.1667 111.833 30 113.5 32 113.5C34 113.5 74.5 113.5 94.5 113.5C95.8333 113.333 98.7 112.3 99.5 109.5C100.3 106.7 104.5 93.3333 106.5 87V78M19.5 78C24.4135 78 30.2336 78 36.5 78M106.5 78C110.5 78 113.5 76.5 113.5 70.5C113.5 64.5 109.5 63 107.5 63C105.773 63 103.933 63 102 63M106.5 78C105.302 78 98.31 78 88.5 78M39 63C54.188 63 75.9969 63 93.5 63M39 63L55.5 47.7073M39 63C31.7781 63 26.0532 63 23 63M93.5 63C96.4757 63 99.3269 63 102 63M93.5 63L64.5 46.7941M102 63C99.5 50.6667 93.6 25.6 90 24M90 24H74M90 24C91.6667 23.8333 94.9 22.5 94.5 18.5C94 13.5 93 13 89.5 13C86.7 13 76.3333 13 71.5 13C70.6667 13 69 14.1 69 18.5C69 22.9 72.3333 24 74 24M64.5 46.7941L59.5 44L55.5 47.7073M64.5 46.7941C66.3333 40.6961 70.8 27.6 74 24M55.5 47.7073C53.3333 45.6382 48 42 42 42C33.5 42 22.5 46.5 23 63M88.5 78C88.5 88.5441 88.5 94.4558 88.5 105C85.5711 105 83.9289 105 81 105V78M88.5 78C86.1483 78 83.6346 78 81 78M81 78C78.7466 78 76.4047 78 74 78M74 78V105H66.5V78M74 78C71.5559 78 69.047 78 66.5 78M66.5 78C64.1912 78 61.8512 78 59.5 78M59.5 78V105H52V78M59.5 78C57.0046 78 54.4966 78 52 78M52 78C49.8193 78 47.6473 78 45.5 78M45.5 78V105H36.5V78M45.5 78C42.4342 78 39.4187 78 36.5 78" stroke="#9A4E77" stroke-width="6" stroke-linecap="round" stroke-linejoin="round"/>
</svg>
