<svg width="125" height="125" viewBox="0 0 125 125" fill="none" xmlns="http://www.w3.org/2000/svg">
<path d="M44.1927 11.3791C41.693 11.8482 38.9832 12.7598 35.6927 14.1515C33.6926 14.9975 33.1927 45.6515 35.6927 49.6515C38.1927 53.6515 44.1927 55.1515 44.1927 57.1515C44.1927 59.1515 42.1927 95.6516 42.1927 98.6515C42.1927 101.652 42.1927 112.652 48.6927 112.652C51.026 112.652 56.0926 109.852 55.6926 98.6515C55.2926 87.4515 55.1927 77.1512 53.6926 57.1515C53.6926 55.1512 62.6926 50.0055 62.6926 46.6512C62.6926 44.6512 63.6927 25.1512 61.1927 14.1515C58.334 13.0624 55.9127 12.2403 53.6926 11.7093M44.1927 11.3791V36.1512M44.1927 11.3791C47.443 10.769 50.3381 10.9068 53.6926 11.7093M53.6926 11.7093V36.1512M77.6926 112.652C76.1926 113.818 73.2926 111.251 73.6926 91.6512C74.0926 72.0512 73.526 31.1512 73.1926 13.1512C79.6926 14.8178 92.6926 22.051 92.6926 37.6512C92.6926 57.1515 79.1926 59.1512 81.6926 68.1512C84.1926 77.1512 92.6926 105.652 77.6926 112.652Z" stroke="#7EAC5A" stroke-width="6" stroke-linecap="round" stroke-linejoin="round"/>
</svg>
