<svg width="125" height="125" viewBox="0 0 125 125" fill="none" xmlns="http://www.w3.org/2000/svg">
<path d="M50 29C36.9995 29 18.0002 36.5 18 61.5C17.9998 87.1031 36.9995 94.5 50 94.5M50 29C62.9999 29 82.4999 36.3 82.4999 61.5C82.4999 86.7 63.4995 94.5 50 94.5M50 29H65.4995M50 94.5L62.4995 94.5M62.4995 94.5C75.999 94.5 94.9994 86.7 94.9994 61.5C94.9994 36.3 78.4994 29 65.4995 29M62.4995 94.5H75.9996C89.4991 94.5 108.5 86.7 108.5 61.5C108.5 36.3 88.9995 29 75.9996 29H65.4995M41.9995 51.5L50.9995 41.5V75.5H41.9995H59.4995" stroke="#6D907B" stroke-width="6" stroke-linecap="round" stroke-linejoin="round"/>
</svg>
