<svg width="125" height="125" viewBox="0 0 125 125" fill="none" xmlns="http://www.w3.org/2000/svg">
<path d="M25.4146 61.1859C23.1842 68.0139 24.4013 73.565 25.4146 76.6054C27.0809 81.6054 35.4146 90.1054 36.9146 90.6054C38.4146 91.1054 36.9146 93.1054 35.4146 96.1054C34.2146 98.5054 34.9146 100.772 35.4146 101.605C36.9146 102.105 40.5149 103.905 42.9149 105.105C45.3149 106.305 47.5812 104.105 48.4146 103.105L51.4146 98.1054C57.4149 99.6054 67.9149 99.1054 72.4149 98.1054C72.5815 98.9387 73.2149 100.605 74.4149 102.605C75.6149 104.605 76.9149 106.272 78.9149 105.605C80.4149 105.105 82.5146 104.305 84.9146 103.105C87.3146 101.905 89.9149 100.605 88.9149 97.1054L87.9146 93.1054C94.7146 89.5054 98.7479 82.6054 99.9146 79.6054C100.915 79.6054 103.415 79.6054 105.415 79.6054C107.415 79.6054 108.248 77.6054 108.415 76.6054C108.415 74.272 108.415 68.9054 108.415 66.1054C108.415 63.3054 106.415 62.272 105.415 62.1054H98.4146C97.9146 58.1054 96.4146 55.6054 94.4146 51.6054C92.8146 48.4054 87.4146 45.272 84.9146 44.1054C83.7146 41.7054 86.4146 33.1054 87.9146 29.1054C79.5146 30.7054 75.0812 37.772 73.9146 41.1054C70.4146 39.1054 42.9142 36.6051 31.4146 50.6054C28.3507 54.3355 26.4853 57.9079 25.4146 61.1859ZM25.4146 61.1859C20.0813 58.6591 11.8149 51.8054 21.4149 44.6054M86.915 64.6054V61.1859M86.915 61.1859L84.9146 63.6054L86.915 66.1054L88.9149 63.6054L86.915 61.1859ZM36.9151 38.1054C35.0818 34.1054 34.915 24.1055 45.4151 20.6054C54.415 17.6054 62.0817 26.4387 63.4149 32.1054" stroke="#BD446F" stroke-width="6" stroke-linecap="round" stroke-linejoin="round"/>
</svg>
