<svg width="125" height="125" viewBox="0 0 125 125" fill="none" xmlns="http://www.w3.org/2000/svg">
<path d="M68.0586 30.03C64.6591 28.3804 63.057 24.9232 63.057 22C63.057 18 66.057 13 72.557 13C79.057 13 82.057 18 82.057 22C82.057 26 79.057 31 72.557 31C70.8071 31 69.3109 30.6376 68.0586 30.03ZM68.0586 30.03L65 34.2078M65 34.2078C66.1456 34.8254 67.2343 35.4504 68.0586 36C74.5587 39.5 89.5571 49 89.5571 49C89.5571 49 103.089 38.145 106.057 40C110.057 42.5 90.0571 57 89.0571 57C85.5571 57 74.5571 50 74.5571 50C74.5571 50 61.1617 88.6638 51 104.702M65 34.2078C61.9765 32.5778 58.557 31 58.557 31C58.557 31 21.2687 33.5523 20.057 38C18.5586 43.5 47.057 42 53.557 42C53.557 42 27.8009 83.135 37.0571 86.5C42.5585 88.5 54.5571 66.5 55.0571 66C55.5571 65.5 36.62 109.958 43.5571 111.5C45.5343 111.939 48.139 109.217 51 104.702M51 104.702L67.5931 99.5M67.5931 99.5C68.7173 96.3696 71.6328 93.5 76.557 93.5C83.057 93.5 86.057 98.5 86.057 102.5C86.057 106.5 83.057 111.5 76.557 111.5C70.057 111.5 67.057 106.5 67.057 102.5C67.057 101.53 67.2333 100.502 67.5931 99.5Z" stroke="#2A561B" stroke-width="6" stroke-linecap="round" stroke-linejoin="round"/>
</svg>
