<svg width="125" height="125" viewBox="0 0 125 125" fill="none" xmlns="http://www.w3.org/2000/svg">
<path d="M49 39.5C46.1103 39.5 43.9557 39.5 43 39.5C39 39.5 37.6667 42.5 37.5 44C37.5 47 37.5 54.1 37.5 58.5C37.5 62.9 41.1667 64.6667 43 65C53.3333 65 75.5 65 81.5 65C87.5 65 89 60.6667 89 58.5C89 55 89 47.2 89 44C89 40.8 85.6667 39.6667 84 39.5C82.1112 39.5 79.9003 39.5 77.5 39.5M49 39.5V33.5C49.1667 32.6667 50.1 31 52.5 31C54.9 31 68.5 31 75 31C76 30.8333 77.5 31.0669 77.5 33.5C77.5 36.0001 77.3333 38.5 77.5 39.5M49 39.5C56.3009 39.5 68.294 39.5 77.5 39.5M37.5 101.342C38.4207 101.681 39.2867 101.893 40 102C50.3333 102 73.6 102 84 102C85.9222 102 87.5779 101.761 89 101.349M37.5 101.342C34.1186 100.1 30 97.1592 30 91.5C30 84.3 30 46.5 30 28.5C30.1667 25.3333 32.4 19 40 19H46M37.5 101.342L25 112M89 101.349C95.2723 99.532 97 94.3531 97 91.5C97 73.6667 97 36.1 97 28.5C97 20.9 90.3333 19 87 19L81 19.0001M89 101.349L101.5 112M46 19C46 20.5 47.5819 23.5 52 23.5C56.5 23.5 58 20.5 58 19M46 19C46 15.5 47 12 52 12C57 12 58 16 58 19M58 19L69 19.0001M69 19.0001C69 20.5001 70.5819 23.5001 75 23.5001C79.5 23.5001 81 20.5001 81 19.0001M69 19.0001C69 15.5001 70 12.0001 75 12.0001C80 12.0001 81 16.0001 81 19.0001M38.5 86.0001C38.5 87.5001 40.0819 90.5001 44.5 90.5001C49 90.5001 50.5 87.5001 50.5 86.0001C50.5 83.0001 49.5 79.0001 44.5 79.0001C39.5 79.0001 38.5 82.5001 38.5 86.0001ZM76.5 86.0001C76.5 87.5001 78.0819 90.5001 82.5 90.5001C87 90.5001 88.5 87.5001 88.5 86.0001C88.5 83.0001 87.5 79.0001 82.5 79.0001C77.5 79.0001 76.5 82.5001 76.5 86.0001Z" stroke="#FF6231" stroke-width="6" stroke-linecap="round" stroke-linejoin="round"/>
</svg>
