<svg width="125" height="125" viewBox="0 0 125 125" fill="none" xmlns="http://www.w3.org/2000/svg">
<path d="M22.3255 93.5V73L24.8479 66.5M22.3255 93.5V100C22.4922 100.833 23.5257 102.5 26.3257 102.5C29.1257 102.5 34.4924 102.5 36.8257 102.5C37.8257 102.667 39.8257 101.1 39.8257 93.5M22.3255 93.5H39.8257M104.825 93.5V73L102.206 66.5M104.825 93.5V100C104.826 100.833 104.026 102.5 100.826 102.5C97.6257 102.5 91.8257 102.5 89.3257 102.5C88.159 101.833 85.9257 99.1 86.3257 93.5M104.825 93.5H86.3257M74.8254 33.5C82.4254 33.9 88.8254 36.5 91.3254 39.5L98.9822 58.5M74.8254 33.5C67.2254 33.1 56.6588 33.3333 52.3255 33.5M74.8254 33.5C74.8254 33 74.8254 31.2 74.8254 28C74.8254 24.8 71.8254 24 70.3254 24C66.9921 24 59.5255 24 56.3255 24C53.1255 24 52.3255 26.6667 52.3255 28V33.5M52.3255 33.5C47.4921 34 37.3255 35.9 35.3255 39.5L28.5344 57M102.206 66.5H110.825C112.825 65.6667 116.326 58.5 110.825 57C107.826 56.1819 102.206 57 98.9822 58.5M102.206 66.5L98.9822 58.5M98.9822 58.5C99.5074 63.3 95.0967 65.8333 92.8257 66.5C74.4923 66.5 37.0257 66.5 33.8257 66.5C30.6257 66.5 28.3181 61.8333 27.5643 59.5M24.8479 66.5H16.8255C14.8255 65.6667 11.4255 63.1 13.8255 59.5C16.8255 55 26.2432 57 28.5344 57M24.8479 66.5L27.5643 59.5M28.5344 57L27.5643 59.5M39.8257 93.5H86.3257M48.3257 79.5C48.4923 77.1667 47.7257 73 43.3257 73C37.8257 73 28.8256 72.5 28.8257 76C28.8258 79.5355 35.3258 85 40.3258 85C42.3258 85 48.3257 84 48.3257 79.5ZM78.1288 79.5113C77.9581 77.1828 78.7436 73.0246 83.2516 73.0246C88.8866 73.0246 98.1077 72.5257 98.1076 76.0185C98.1076 79.5468 91.448 85 86.3252 85C84.2761 85 78.1288 84.0021 78.1288 79.5113Z" stroke="#DACA39" stroke-width="6" stroke-linecap="round" stroke-linejoin="round"/>
</svg>
