<svg width="125" height="125" viewBox="0 0 125 125" fill="none" xmlns="http://www.w3.org/2000/svg">
<path d="M74.0005 101.5C85.2005 101.5 95.6671 108.833 99.5005 112.5H49.5005C53.0005 108.833 62.8005 101.5 74.0005 101.5ZM74.0005 101.5V76M74.0005 76L98.5005 46.0149M74.0005 76L55 53M40.5005 35L49.5005 46.0149M40.5005 35L51.0005 30.5M40.5005 35L38.5005 22.5M40.5005 35L28.0005 33.5M40.5005 35L33.5005 46.0149M40.5005 35H63.5005M49.5005 46.0149H98.5005M49.5005 46.0149L55 53M98.5005 46.0149L107.5 35H63.5005M63.5005 35C63.6672 27.8333 56.5002 12 40.5005 12C24.5007 12 18 26.5 18 36.5C18 44.0149 25.5 58.5 38.5005 58.5C51.501 58.5 55 53 55 53" stroke="#EE9A38" stroke-width="6" stroke-linecap="round" stroke-linejoin="round"/>
</svg>
