<svg width="80" height="80" viewBox="0 0 80 80" fill="none" xmlns="http://www.w3.org/2000/svg">
<path d="M34.5068 70.5C25.8402 68.8333 8.40684 60.3 8.00684 39.5C7.60684 18.7 24.8402 10.1667 33.5068 8.5M33.5068 8.5L28.0068 5M33.5068 8.5L31 14.5" stroke="#4E1B56" stroke-width="4" stroke-linecap="round" stroke-linejoin="round"/>
<path d="M31.5312 41.1875C31.5312 43.5312 32.0391 45.4193 33.0547 46.8516C34.0833 48.2839 35.457 49 37.1758 49C38.1784 49 39.1094 48.6745 39.9688 48.0234C40.8281 47.3724 41.5247 46.5 42.0586 45.4062C42.5143 46.5 43.263 47.3724 44.3047 48.0234C45.3464 48.6745 46.6159 49 48.1133 49C50.7565 49 52.9766 47.8281 54.7734 45.4844C56.5703 43.1406 57.4688 40.0807 57.4688 36.3047C57.4688 31.7474 55.8997 27.8867 52.7617 24.7227C49.6367 21.5586 45.5026 19.9766 40.3594 19.9766C35.2161 19.9766 30.7891 21.9492 27.0781 25.8945C23.3802 29.8398 21.5312 34.5469 21.5312 40.0156C21.5312 45.4844 23.1849 49.8008 26.4922 52.9648C29.7995 56.1289 33.7578 57.7109 38.3672 57.7109C40.099 57.7109 41.5508 57.5612 42.7227 57.2617C43.9076 56.9753 44.9362 56.5456 45.8086 55.9727V52.9453C44.9883 53.4141 43.9727 53.8177 42.7617 54.1562C41.5638 54.5078 40.099 54.6836 38.3672 54.6836C34.6042 54.6836 31.4857 53.4206 29.0117 50.8945C26.5508 48.3685 25.3203 44.7747 25.3203 40.1133C25.3203 35.3477 26.7591 31.2982 29.6367 27.9648C32.5143 24.6315 36.0885 22.9648 40.3594 22.9648C44.6562 22.9648 47.9896 24.306 50.3594 26.9883C52.7292 29.6706 53.9141 32.8086 53.9141 36.4023C53.9141 39.4102 53.3802 41.832 52.3125 43.668C51.2578 45.4909 49.8906 46.4023 48.2109 46.4023C47.1562 46.4023 46.3359 46.0964 45.75 45.4844C45.1641 44.8724 45.0208 43.7656 45.3203 42.1641L47.5664 30.5234H45.4766C44.9688 30.0286 44.2852 29.5599 43.4258 29.1172C42.5664 28.6745 41.6224 28.4531 40.5938 28.4531C38.1719 28.4531 36.056 29.651 34.2461 32.0469C32.4362 34.4427 31.5312 37.4896 31.5312 41.1875ZM35.2422 41.1289C35.2422 38.2904 35.7826 35.9206 36.8633 34.0195C37.957 32.1185 39.3307 31.168 40.9844 31.168C41.4661 31.168 41.9414 31.2526 42.4102 31.4219C42.8919 31.5911 43.3021 31.8125 43.6406 32.0859L41.8828 41.207C41.5312 43.0169 41.0234 44.2865 40.3594 45.0156C39.6953 45.7448 38.9401 46.1094 38.0938 46.1094C37.1693 46.1094 36.4596 45.6927 35.9648 44.8594C35.4831 44.026 35.2422 42.7826 35.2422 41.1289Z" fill="#060359"/>
<path d="M45.6325 8.00028C54.255 9.88245 71.4702 18.8477 71.3516 39.6512C71.233 60.4547 53.7924 68.5558 45.0869 70.0059M45.0869 70.0059L50.4979 73.6419M45.0869 70.0059L47.7425 64.0703" stroke="#4E1B56" stroke-width="4" stroke-linecap="round" stroke-linejoin="round"/>
</svg>
