<svg width="136" height="105" viewBox="0 0 136 105" fill="none" xmlns="http://www.w3.org/2000/svg">
<path d="M70.5555 66.8367L73.8638 63.4767M97.4355 39.5367L94.9543 42.0567M96.1755 52.9767C96.9012 50.5967 97.6731 45.0807 94.9543 42.0567M94.9543 42.0567L84.409 52.7667M94.9543 42.0567C91.633 38.6967 86.9355 37.8567 83.1555 41.2167C80.2155 44.5767 82.7312 50.3167 84.409 52.7667M73.8638 63.4767C71.641 61.0967 68.2875 55.4127 72.6555 51.7167M73.8638 63.4767C75.561 65.2967 80.6355 68.8317 84.8355 65.1567C88.1955 62.2167 88.1826 58.0167 84.409 52.7667M73.8638 63.4767L84.409 52.7667M19 92.4567V12.6567M19 12.6567L6 32.9999M19 12.6567L32 32.9999M43.6754 60.5367C41.9958 58.8824 41.1555 56.7567 42.8359 54.6567C45.0674 51.8679 72.5158 25.6767 85.6758 12.6567C85.9558 12.0967 87.5238 10.9767 91.5558 10.9767C95.5878 10.9767 111.996 10.9767 119.696 10.9767C121.656 10.6967 125.576 11.3127 125.576 16.0167C125.576 20.7207 125.576 37.5767 125.576 45.4167C125.576 47.0967 125.492 48.4407 123.476 50.4567C121.46 52.4727 94.2158 79.8567 81.4758 92.4567C79.3758 94.5337 77.4332 94.5567 75.5957 92.4567C73.2025 89.7216 52.9154 69.6367 43.6754 60.5367ZM104.156 25.6767C104.156 28.1967 106.256 31.5567 110.456 31.5567C114.656 31.5567 116.336 27.7767 116.336 25.6767C116.336 23.5767 114.656 19.7967 110.456 19.7967C106.256 19.7967 104.156 23.1567 104.156 25.6767Z" stroke="#060359" stroke-width="6" stroke-linecap="round" stroke-linejoin="round"/>
</svg>
